# xmcd
#
# Track frame offsets:
# 150
# 15896
# 29556
# 46317
# 59051
# 74813
# 89595
# 107564
# 122617
# 136060
# 153020
# 166367
# 181477
#
# Disc length: 2569 seconds
#
#
# Revision: 0
# Processed by: cddbd v1.5.2PL0 Copyright (c) Steve Scherf et al.
# Submitted via: FreeRIP 2.942 
#
DISCID=ad0a070d
DTITLE=geraldo viola dino guedes - presa acuada
DYEAR=2004
DGENRE=Country
TTITLE0=presa acuada
TTITLE1=ESSA NOITE EU PINTO AI
TTITLE2=SAUDADE DE UM BEM
TTITLE3=DESABAFO DE PAIXÃO
TTITLE4=PERDIDO NA MADRUGADA
TTITLE5=AMOR DE GOIANO
TTITLE6=DEBAIXO DO PANO
TTITLE7=NO SILENCIO DA MADRUGADA
TTITLE8=APAIXONADO DE DOER
TTITLE9=FALCÃO FERIDO
TTITLE10=MULHER FORA DO COMUM
TTITLE11=A SUA PROCURA
TTITLE12=VIOLA PERFEITA
EXTD=
EXTT0=
EXTT1=
EXTT2=
EXTT3=
EXTT4=
EXTT5=
EXTT6=
EXTT7=
EXTT8=
EXTT9=
EXTT10=
EXTT11=
EXTT12=
PLAYORDER=
